<?xml version="1.0" encoding="UTF-8" standalone="no"?>
<!-- Created with Inkscape (http://www.inkscape.org/) -->

<svg
   xmlns:dc="http://purl.org/dc/elements/1.1/"
   xmlns:cc="http://creativecommons.org/ns#"
   xmlns:rdf="http://www.w3.org/1999/02/22-rdf-syntax-ns#"
   xmlns:svg="http://www.w3.org/2000/svg"
   xmlns="http://www.w3.org/2000/svg"
   xmlns:sodipodi="http://sodipodi.sourceforge.net/DTD/sodipodi-0.dtd"
   xmlns:inkscape="http://www.inkscape.org/namespaces/inkscape"
   width="75"
   height="14"
   id="svg2"
   version="1.1"
   inkscape:version="0.48.4 r9939"
   sodipodi:docname="planets.svg"
   inkscape:export-filename="C:\Users\zhmyrov\PycharmProjects\dpq\src\dpq\media\img\planets.png"
   inkscape:export-xdpi="94.205612"
   inkscape:export-ydpi="94.205612">
  <title
     id="title4007">planets</title>
  <defs
     id="defs4" />
  <sodipodi:namedview
     id="base"
     pagecolor="#ffffff"
     bordercolor="#666666"
     borderopacity="1.0"
     inkscape:pageopacity="0.0"
     inkscape:pageshadow="2"
     inkscape:zoom="18.187996"
     inkscape:cx="38.186097"
     inkscape:cy="8.8312161"
     inkscape:document-units="px"
     inkscape:current-layer="layer1"
     showgrid="true"
     inkscape:window-width="1366"
     inkscape:window-height="746"
     inkscape:window-x="-8"
     inkscape:window-y="-8"
     inkscape:window-maximized="1">
    <inkscape:grid
       type="xygrid"
       id="grid3017"
       empspacing="5"
       visible="true"
       enabled="true"
       snapvisiblegridlinesonly="true" />
  </sodipodi:namedview>
  <metadata
     id="metadata7">
    <rdf:RDF>
      <cc:Work
         rdf:about="">
        <dc:format>image/svg+xml</dc:format>
        <dc:type
           rdf:resource="http://purl.org/dc/dcmitype/StillImage" />
        <dc:title>planets</dc:title>
      </cc:Work>
    </rdf:RDF>
  </metadata>
  <g
     inkscape:label="Layer 1"
     inkscape:groupmode="layer"
     id="layer1"
     transform="translate(0,-1038.3622)">
    <path
       inkscape:connector-curvature="0"
       d="m 10.362074,1049.5014 c -5.4676258,0 -5.4676258,0 -5.4676258,0 m 2.733812,-3.0347 c 0,5.4676 0,5.4676 0,5.4676 m 2.5623518,-12.6489 c -0.5052558,0.8831 -1.4565578,1.4782 -2.5468428,1.4782 -1.113017,0 -2.081195,-0.6201 -2.577861,-1.5337 m 5.6168288,4.7742 c 0,1.6869 -1.3675358,3.0545 -3.0544768,3.0545 -1.68694,0 -3.054475,-1.3676 -3.054475,-3.0545 0,-1.687 1.367535,-3.0545 3.054475,-3.0545 1.686941,0 3.0544768,1.3675 3.0544768,3.0545 z"
       style="fill:none;stroke:#000000;stroke-width:1.29560065px;stroke-linecap:butt;stroke-linejoin:miter;stroke-opacity:1"
       id="path3837" />
    <path
       inkscape:connector-curvature="0"
       id="path3833-1"
       style="fill:none;stroke:#000000;stroke-width:1.4770391px;stroke-linecap:butt;stroke-linejoin:miter;stroke-opacity:1"
       d="m 40.677051,1041.5743 c -6.233322,0 -6.233322,0 -6.233322,0 m 3.116661,3.4597 c 0,-6.2333 0,-6.2333 0,-6.2333 m 3.48223,9.0407 c 0,-1.9231 -1.559047,-3.4822 -3.48223,-3.4822 -1.923183,0 -3.48223,1.5591 -3.48223,3.4822 0,1.9233 1.559047,3.4823 3.48223,3.4823 1.923183,0 3.48223,-1.559 3.48223,-3.4823 z" />
    <path
       inkscape:connector-curvature="0"
       id="path3833-1-7"
       style="fill:none;stroke:#000000;stroke-width:1.4770391px;stroke-linecap:butt;stroke-linejoin:miter;stroke-opacity:1"
       d="m 25.73617,1049.3051 c -6.233322,0 -6.233322,0 -6.233322,0 m 3.116661,-3.4597 c 0,6.2333 0,6.2333 0,6.2333 m 3.48223,-9.0407 c 0,1.9231 -1.559047,3.4822 -3.48223,3.4822 -1.923183,0 -3.48223,-1.5591 -3.48223,-3.4822 0,-1.9233 1.559047,-3.4823 3.48223,-3.4823 1.923183,0 3.48223,1.559 3.48223,3.4823 z" />
    <path
       id="path3833-9-4"
       style="fill:none;stroke:#000000;stroke-width:1.60933399px;stroke-linecap:butt;stroke-linejoin:miter;stroke-opacity:1"
       d="m 58.00188,1044.5619 c 0,-5.695 0,-5.695 0,-5.695 m 0.776889,0.632 c -5.694872,0 -5.694872,0 -5.694872,0 m 4.376223,0.4882 c -4.714018,4.8537 -4.714018,4.8537 -4.714018,4.8537 m 1.788763,2.6368 c 0,-2.0875 -1.69232,-3.7799 -3.779905,-3.7799 -2.087583,0 -3.779903,1.6924 -3.779903,3.7799 0,2.0877 1.69232,3.7799 3.779903,3.7799 2.087585,0 3.779905,-1.6922 3.779905,-3.7799 z"
       inkscape:connector-curvature="0" />
    <path
       id="path4004"
       style="fill:none;stroke:#000000;stroke-width:1.36596465px;stroke-linecap:butt;stroke-linejoin:miter;stroke-opacity:1"
       d="m 70.454796,1039.1552 c 0,12.634 0.04312,12.634 0.04312,12.634 m -7.88921,-4.4347 c 10.434982,0 10.499662,0 10.499662,0 m -4.947631,-3.651 c -0.265637,0.9558 -1.327169,2.0699 -2.790328,2.8138 -0.980848,0.4989 -1.956472,0.7367 -2.740927,0.7182 m 0.06881,-4.2066 c -0.01397,-0.1139 -0.02115,-0.2301 -0.02115,-0.348 0,-1.5654 1.269063,-2.8345 2.83453,-2.8345 1.56547,0 2.834533,1.2691 2.834533,2.8345 l 0,0 c 0,0.3985 -0.08221,0.7778 -0.230565,1.1216"
       inkscape:connector-curvature="0" />
  </g>
</svg>
